<svg xmlns="http://www.w3.org/2000/svg" xmlns:xlink="http://www.w3.org/1999/xlink" viewBox="0 0 87.65 77.94"><defs><style>.cls-1{fill:none;}.cls-2{clip-path:url(#clip-path);}.cls-3{fill:#4ca86d;}.cls-4{clip-path:url(#clip-path-2);}.cls-5{fill:#e1c08d;}.cls-6{clip-path:url(#clip-path-3);}.cls-7{fill:#6a563d;}.cls-8{fill:#281c15;}</style><clipPath id="clip-path" transform="translate(-2.31 -2.63)"><rect class="cls-1" x="14.2" y="58.24" width="72.63" height="22.32"></rect></clipPath><clipPath id="clip-path-2" transform="translate(-2.31 -2.63)"><rect class="cls-1" width="95.25" height="84.75"></rect></clipPath><clipPath id="clip-path-3" transform="translate(-2.31 -2.63)"><rect class="cls-1" x="2.31" y="13.5" width="87.65" height="59.45"></rect></clipPath></defs><title>hund2</title><g id="Layer_2" data-name="Layer 2"><g id="Layer_1-2" data-name="Layer 1"><g class="cls-2"><path class="cls-3" d="M16.82,67.3,14.31,75s12.15,6.71,30.15,5.43S86.55,67.3,86.55,67.3l-4.82-8.95s-35,20.29-64.91,8.95" transform="translate(-2.31 -2.63)"></path></g><g class="cls-4"><path class="cls-5" d="M62,69.76c-18.41,14.89-37,2.78-37,2.78C0,68.61,10.07,48.89,10.07,48.89c-2-7.39.61-11.09.61-11.09a19.83,19.83,0,0,1-.55-3.31C9.49,26,15.76,23,15.76,23a40.45,40.45,0,0,1,6.12-8.86A35.34,35.34,0,0,1,43,2.73C78.87.11,85.43,47.58,85.43,47.58,95.26,64.23,62,69.76,62,69.76" transform="translate(-2.31 -2.63)"></path></g><g class="cls-6"><path class="cls-7" d="M64.12,17.79s2-3.26,9.36,0c0,0,4.59-3.87,9.83-1.44,0,0,8.19,6.84,6.39,20.84,0,0,.16,5.05-4.43,4.25,0,0-12.47-8.15-17.71-18.09,0,0-5.08.29-3.44-5.56M16.05,42.11s1.6-8.09,8.61-6.62c0,0,4.66.36,6.14,10,0,0,1.09,8.18-9.1,6.84C21.7,52.37,10,53.23,16.05,42.11Zm50-.8s-1.38-9-9.35-7.77c0,0-5.27.16-7.43,10.84,0,0-1.67,9,9.9,8.06C59.14,52.44,72.22,54,66,41.31ZM37.9,46.94a13.56,13.56,0,0,1,9.83,7.22s8,1.34,9.61,6c0,0,1.35,13.81-17.22,12.72,0,0-17.35,1.72-17.45-11.12A7.14,7.14,0,0,1,28,53.55S32.12,46.33,37.9,46.94ZM26.2,26.64A20.74,20.74,0,0,0,16.29,22a39.91,39.91,0,0,1,5.59-7.87c-2.06-.36-7-.84-8.11,1.06,0,0-8-1.95-8.52,1.63,0,0-5.75,14.51-1.16,17,0,0,2.25,2.73,6,.72C9.49,26,15.76,23,15.76,23l0-.07a19.43,19.43,0,0,1,9.8,4.51.5.5,0,0,0,.29.09.59.59,0,0,0,.39-.16A.5.5,0,0,0,26.2,26.64Zm35.71.26a.45.45,0,0,0,.32-.13.5.5,0,0,0,0-.7c-5.95-6.65-13.76-3.33-13.85-3.3a.49.49,0,1,0,.38.9,11.27,11.27,0,0,1,12.73,3.07A.64.64,0,0,0,61.91,26.9Z" transform="translate(-2.31 -2.63)"></path></g><g class="cls-4"><path class="cls-8" d="M27.84,61.19a.53.53,0,0,1,.68-.16c2,1.28,3.66,1.63,4.91,1,2.48-1.24,2.83-5.81,2.83-6A20.63,20.63,0,0,1,36,53a5.07,5.07,0,0,1-4.3-4.54s3.79-3.1,10.41-.41A5.74,5.74,0,0,1,37,53v.06l.23,2.75a10,10,0,0,0,2.08,5,5.87,5.87,0,0,0,4.18,1.95s2.93.32,4.44-3.39a.48.48,0,0,1,.64-.26.46.46,0,0,1,.26.64c-1.45,3.52-4,4-5,4h-.42a6.76,6.76,0,0,1-4.82-2.27,9.1,9.1,0,0,1-1.7-3.07c-.42,1.63-1.25,3.65-3,4.51a4,4,0,0,1-1.64.41,7.42,7.42,0,0,1-4.27-1.47.5.5,0,0,1-.1-.67M58.53,40.45c1.6,0,2.89,2,2.89,4.47s-1.29,4.48-2.89,4.48-2.89-2-2.89-4.48S56.93,40.45,58.53,40.45ZM23.34,41.54c1.41,0,2.54,1.76,2.54,3.93s-1.13,3.93-2.54,3.93-2.54-1.76-2.54-3.93S21.94,41.54,23.34,41.54Z" transform="translate(-2.31 -2.63)"></path></g></g></g></svg>